<svg xmlns="http://www.w3.org/2000/svg" viewBox="0 0 112 126">
  <g fill="none" stroke="#c2410c" stroke-width="16" stroke-linecap="round" stroke-linejoin="round">
    <path d="M56 122 L56 72"/>
    <path d="M56 86 Q40 74 36 44 M36 60 L24 40 M36 56 L48 36"/>
    <path d="M56 80 Q72 68 78 38 M78 54 L92 36 M78 52 L66 32"/>
    <path d="M56 92 L56 56 M56 64 L44 50"/>
  </g>
  <g fill="none" stroke="#fb923c" stroke-width="9" stroke-linecap="round" stroke-linejoin="round">
    <path d="M56 122 L56 72"/>
    <path d="M56 86 Q40 74 36 44 M36 60 L24 40 M36 56 L48 36"/>
    <path d="M56 80 Q72 68 78 38 M78 54 L92 36 M78 52 L66 32"/>
    <path d="M56 92 L56 56 M56 64 L44 50"/>
  </g>
</svg>
