<svg xmlns="http://www.w3.org/2000/svg" viewBox="0 0 112 122">
  <g fill="none" stroke="#7c3aed" stroke-width="7" stroke-linecap="round" stroke-linejoin="round">
    <path d="M56 118 L56 70"/>
    <path d="M56 78 Q30 66 22 30 M56 78 Q82 66 90 30"/>
    <path d="M56 72 Q44 56 40 24 M56 72 Q68 56 72 24"/>
    <path d="M56 84 Q40 74 30 52 M56 84 Q72 74 82 52"/>
    <path d="M40 24 L34 12 M40 24 L46 10 M72 24 L66 10 M72 24 L78 12 M22 30 L16 20 M90 30 L96 20 M56 24 L56 8"/>
  </g>
  <g fill="#c4b5fd">
    <circle cx="56" cy="24" r="6"/><circle cx="40" cy="24" r="5"/><circle cx="72" cy="24" r="5"/>
    <circle cx="22" cy="30" r="5"/><circle cx="90" cy="30" r="5"/>
  </g>
</svg>
