<svg xmlns="http://www.w3.org/2000/svg" viewBox="0 0 112 126">
  <g stroke="#b45c8f" stroke-width="4" stroke-linejoin="round">
    <path d="M14 122 Q6 70 40 36 Q78 0 100 40 Q112 64 96 88 Q104 104 92 122 Z" fill="#fbcfe8"/>
    <path d="M72 58 Q88 58 88 74 Q88 90 72 90 Q60 90 60 78 Q60 70 70 70" fill="none" stroke="#f9a8d4" stroke-width="6"/>
    <path d="M40 36 Q34 70 40 118 M64 24 Q52 64 58 120" fill="none" stroke="#f9a8d4" stroke-width="4"/>
  </g>
  <path d="M28 122 L28 96 Q28 84 42 84 Q56 84 56 96 L56 122 Z" fill="#7c5026" stroke="#4b2e13" stroke-width="3.5"/>
  <circle cx="50" cy="104" r="3" fill="#fcd34d"/>
  <circle cx="40" cy="50" r="9" fill="#7dd3fc" stroke="#4b2e13" stroke-width="3"/>
</svg>
