<svg xmlns="http://www.w3.org/2000/svg" viewBox="0 0 172 116">
  <g stroke="#a16207" stroke-width="4.5" stroke-linejoin="round" stroke-linecap="round">
    <path d="M16 66 L36 52 L36 80 Z" fill="#eab308"/>
    <rect x="32" y="44" width="118" height="58" rx="29" fill="#facc15"/>
    <path d="M78 44 L78 20 Q78 12 94 12 L110 12 Q118 12 118 20 L118 44 Z" fill="#eab308"/>
    <path d="M98 12 L98 4 L114 4" fill="none" stroke="#a16207" stroke-width="4.5"/>
    <path d="M140 96 L158 108 L152 80 Z" fill="#eab308"/>
  </g>
  <g fill="#7dd3fc" stroke="#a16207" stroke-width="3.4">
    <circle cx="64" cy="72" r="12"/><circle cx="98" cy="72" r="12"/><circle cx="132" cy="72" r="12"/>
  </g>
  <g fill="#fff" opacity="0.85">
    <circle cx="60" cy="68" r="3.4"/><circle cx="94" cy="68" r="3.4"/><circle cx="128" cy="68" r="3.4"/>
  </g>
  <circle cx="98" cy="28" r="6.5" fill="#7dd3fc" stroke="#a16207" stroke-width="3"/>
</svg>
