<svg xmlns="http://www.w3.org/2000/svg" viewBox="0 0 100 100">
  <rect width="100" height="100" fill="#0c2040"/>
  <rect width="100" height="34" fill="#1c305c" opacity=".6"/>
  <path d="M 0 92 L 100 90 L 100 100 L 0 100 Z" fill="#2a2018"/>
  <ellipse cx="20" cy="92" rx="6" ry="2" fill="#3a2c20"/>
  <ellipse cx="80" cy="93" rx="5" ry="1.8" fill="#3a2c20"/>
  <g transform="translate(50 52)">
    <ellipse cx="0" cy="0" rx="18" ry="22" fill="#4a7280"/>
    <ellipse cx="0" cy="-3" rx="15" ry="17" fill="#6a9aaa"/>
    <ellipse cx="-4" cy="-8" rx="5" ry="3" fill="#8abac8" opacity=".7"/>
    <path d="M -16 16 Q -22 28 -16 36" stroke="#4a7280" stroke-width="3.5" fill="none" stroke-linecap="round"/>
    <path d="M -8 20 Q -10 32 -4 38" stroke="#4a7280" stroke-width="3.5" fill="none" stroke-linecap="round"/>
    <path d="M 0 22 Q 0 34 -2 40" stroke="#4a7280" stroke-width="3.5" fill="none" stroke-linecap="round"/>
    <path d="M 8 20 Q 10 32 4 38" stroke="#4a7280" stroke-width="3.5" fill="none" stroke-linecap="round"/>
    <path d="M 16 16 Q 22 28 16 36" stroke="#4a7280" stroke-width="3.5" fill="none" stroke-linecap="round"/>
    <circle cx="-6" cy="-4" r="3.5" fill="#fff"/>
    <circle cx="6" cy="-4" r="3.5" fill="#fff"/>
    <circle cx="-6" cy="-3" r="1.8" fill="#000"/>
    <circle cx="6" cy="-3" r="1.8" fill="#000"/>
  </g>
  <g transform="translate(18 70)">
    <ellipse cx="0" cy="0" rx="10" ry="13" fill="#4a7280"/>
    <ellipse cx="0" cy="-2" rx="8" ry="10" fill="#6a9aaa"/>
    <path d="M -8 9 Q -10 16 -7 20" stroke="#4a7280" stroke-width="2.5" fill="none" stroke-linecap="round"/>
    <path d="M 0 12 Q 0 18 -2 22" stroke="#4a7280" stroke-width="2.5" fill="none" stroke-linecap="round"/>
    <path d="M 8 9 Q 10 16 7 20" stroke="#4a7280" stroke-width="2.5" fill="none" stroke-linecap="round"/>
    <circle cx="-3.5" cy="-2" r="2.2" fill="#fff"/>
    <circle cx="3.5" cy="-2" r="2.2" fill="#fff"/>
    <circle cx="-3.5" cy="-1.5" r="1.1" fill="#000"/>
    <circle cx="3.5" cy="-1.5" r="1.1" fill="#000"/>
  </g>
  <g transform="translate(84 74)">
    <ellipse cx="0" cy="0" rx="9" ry="11" fill="#4a7280"/>
    <ellipse cx="0" cy="-2" rx="7" ry="8" fill="#6a9aaa"/>
    <path d="M -7 8 Q -8 14 -5 18" stroke="#4a7280" stroke-width="2.5" fill="none" stroke-linecap="round"/>
    <path d="M 7 8 Q 8 14 5 18" stroke="#4a7280" stroke-width="2.5" fill="none" stroke-linecap="round"/>
    <circle cx="-2.8" cy="-2" r="2" fill="#fff"/>
    <circle cx="2.8" cy="-2" r="2" fill="#fff"/>
    <circle cx="-2.8" cy="-1.5" r="1" fill="#000"/>
    <circle cx="2.8" cy="-1.5" r="1" fill="#000"/>
  </g>
  <circle cx="48" cy="22" r="1" fill="#cce" opacity=".5"/>
  <circle cx="60" cy="14" r=".8" fill="#cce" opacity=".4"/>
  <circle cx="40" cy="10" r=".7" fill="#cce" opacity=".4"/>
</svg>
