<svg xmlns="http://www.w3.org/2000/svg" viewBox="0 0 100 100">
  <rect x="0" y="0" width="100" height="36" fill="#0a0a22"/>
  <circle cx="20" cy="10" r=".7" fill="#fff"/>
  <circle cx="80" cy="14" r=".8" fill="#fff"/>
  <circle cx="50" cy="6" r=".6" fill="#fff"/>
  <rect x="0" y="36" width="100" height="64" fill="#cfe4f0"/>
  <line x1="0" y1="44" x2="100" y2="46" stroke="#a8c8da" stroke-width="1"/>
  <line x1="0" y1="58" x2="100" y2="56" stroke="#a8c8da" stroke-width="1"/>
  <line x1="0" y1="74" x2="100" y2="76" stroke="#a8c8da" stroke-width="1"/>
  <line x1="0" y1="90" x2="100" y2="88" stroke="#a8c8da" stroke-width="1"/>
  <ellipse cx="50" cy="40" rx="24" ry="5" fill="#06182e"/>
  <path d="M 26 40 Q 26 86 38 96 L 62 96 Q 74 86 74 40 Z" fill="#06182e"/>
  <ellipse cx="50" cy="40" rx="24" ry="5" fill="none" stroke="#f0f8fc" stroke-width="1.5"/>
  <path d="M 28 42 Q 32 50 28 60" fill="none" stroke="#3a6a90" stroke-width=".8" opacity=".6"/>
  <path d="M 72 42 Q 68 50 72 60" fill="none" stroke="#3a6a90" stroke-width=".8" opacity=".6"/>
  <circle cx="50" cy="56" r="7" fill="#e2b090"/>
  <ellipse cx="50" cy="56" rx="5" ry="3.5" fill="#234"/>
  <ellipse cx="48" cy="54" rx="1.5" ry="1" fill="#9cf" opacity=".8"/>
  <rect x="43" y="62" width="14" height="16" rx="3" fill="#d42"/>
  <rect x="40" y="66" width="4" height="8" rx="1.5" fill="#d42"/>
  <rect x="56" y="66" width="4" height="8" rx="1.5" fill="#d42"/>
  <rect x="44" y="76" width="5" height="10" rx="2" fill="#d42"/>
  <rect x="51" y="76" width="5" height="10" rx="2" fill="#d42"/>
  <circle cx="44" cy="48" r="1.2" fill="#fff" opacity=".8"/>
  <circle cx="58" cy="50" r="1" fill="#fff" opacity=".7"/>
  <circle cx="40" cy="44" r="1" fill="#fff" opacity=".6"/>
  <circle cx="62" cy="46" r=".8" fill="#fff" opacity=".5"/>
</svg>
