<svg xmlns="http://www.w3.org/2000/svg" viewBox="0 0 100 100">
  <rect width="100" height="100" fill="#0c2040"/>
  <rect width="100" height="34" fill="#1c305c" opacity=".6"/>
  <line x1="50" y1="6" x2="50" y2="94" stroke="#aaccee" stroke-width=".6" opacity=".4" stroke-dasharray="2,2"/>
  <ellipse cx="50" cy="50" rx="5" ry="28" fill="none" stroke="#bbddff" stroke-width="1" opacity=".55"/>
  <ellipse cx="50" cy="50" rx="2.5" ry="18" fill="none" stroke="#ddeeff" stroke-width=".7" opacity=".4"/>
  <g>
    <circle cx="28" cy="42" r="9" fill="#d22"/>
    <ellipse cx="28" cy="40" rx="6" ry="5" fill="#9cf"/>
    <ellipse cx="26" cy="38" rx="2" ry="1.5" fill="#fff" opacity=".7"/>
    <circle cx="26" cy="41" r="1" fill="#000"/>
    <circle cx="30" cy="41" r="1" fill="#000"/>
    <path d="M 22 48 L 36 48 L 38 70 L 20 70 Z" fill="#d22"/>
    <rect x="36" y="50" width="12" height="5" rx="1.5" fill="#d22"/>
    <circle cx="48" cy="52.5" r="2.5" fill="#e98"/>
    <rect x="22" y="68" width="6" height="14" rx="2" fill="#d22"/>
    <rect x="30" y="68" width="6" height="14" rx="2" fill="#d22"/>
    <circle cx="29" cy="58" r="2.5" fill="#fff"/>
    <path d="M 27.5 58 L 28.5 60 L 30.5 56.5" stroke="#d22" stroke-width="1" fill="none" stroke-linecap="round"/>
  </g>
  <g>
    <circle cx="72" cy="42" r="9" fill="#d22"/>
    <ellipse cx="72" cy="40" rx="6" ry="5" fill="#9cf"/>
    <ellipse cx="74" cy="38" rx="2" ry="1.5" fill="#fff" opacity=".7"/>
    <circle cx="74" cy="41" r="1" fill="#000"/>
    <circle cx="70" cy="41" r="1" fill="#000"/>
    <path d="M 78 48 L 64 48 L 62 70 L 80 70 Z" fill="#d22"/>
    <rect x="52" y="50" width="12" height="5" rx="1.5" fill="#d22"/>
    <circle cx="52" cy="52.5" r="2.5" fill="#e98"/>
    <rect x="72" y="68" width="6" height="14" rx="2" fill="#d22"/>
    <rect x="64" y="68" width="6" height="14" rx="2" fill="#d22"/>
    <circle cx="71" cy="58" r="2.5" fill="#fff"/>
    <path d="M 72.5 58 L 71.5 60 L 69.5 56.5" stroke="#d22" stroke-width="1" fill="none" stroke-linecap="round"/>
  </g>
  <circle cx="20" cy="28" r="1" fill="#cce" opacity=".6"/>
  <circle cx="80" cy="28" r="1" fill="#cce" opacity=".6"/>
  <circle cx="14" cy="20" r=".8" fill="#cce" opacity=".5"/>
  <circle cx="86" cy="20" r=".8" fill="#cce" opacity=".5"/>
  <circle cx="22" cy="14" r=".6" fill="#cce" opacity=".4"/>
  <circle cx="78" cy="14" r=".6" fill="#cce" opacity=".4"/>
</svg>
