<svg xmlns="http://www.w3.org/2000/svg" viewBox="0 0 100 100">
  <rect width="100" height="100" fill="#0c2040"/>
  <rect width="100" height="34" fill="#1c305c" opacity=".6"/>
  <circle cx="14" cy="8" r=".8" fill="#cce" opacity=".4"/>
  <circle cx="50" cy="6" r="1" fill="#cce" opacity=".5"/>
  <circle cx="86" cy="10" r=".7" fill="#cce" opacity=".4"/>
  <g transform="translate(28 30)">
    <polygon points="14,-3 22,-6 22,-1 17,-1" fill="#1a1a1a"/>
    <polygon points="14,3 22,6 22,1 17,1" fill="#1a1a1a"/>
    <ellipse cx="0" cy="0" rx="11" ry="5" fill="#d22"/>
    <rect x="-18" y="-3.5" width="10" height="2.5" rx="1.2" fill="#d22"/>
    <rect x="-18" y="1" width="10" height="2.5" rx="1.2" fill="#d22"/>
    <circle cx="-13" cy="0" r="6" fill="#d22"/>
    <ellipse cx="-15" cy="0" rx="3" ry="4" fill="#9cf"/>
    <ellipse cx="-16" cy="-1" rx="1" ry="1.5" fill="#fff" opacity=".75"/>
    <circle cx="20" cy="-1" r="1.3" fill="#cce" opacity=".7"/>
    <circle cx="25" cy="-4" r="1" fill="#cce" opacity=".55"/>
    <circle cx="26" cy="3" r=".9" fill="#cce" opacity=".5"/>
    <circle cx="30" cy="0" r=".7" fill="#cce" opacity=".4"/>
  </g>
  <g transform="translate(55 55)">
    <polygon points="15,-3 24,-6 24,-1 18,-1" fill="#1a1a1a"/>
    <polygon points="15,3 24,6 24,1 18,1" fill="#1a1a1a"/>
    <ellipse cx="0" cy="0" rx="12" ry="5.5" fill="#d22"/>
    <rect x="-20" y="-3.5" width="11" height="2.5" rx="1.2" fill="#d22"/>
    <rect x="-20" y="1" width="11" height="2.5" rx="1.2" fill="#d22"/>
    <circle cx="-14" cy="0" r="6.5" fill="#d22"/>
    <ellipse cx="-16" cy="0" rx="3.2" ry="4.3" fill="#9cf"/>
    <ellipse cx="-17" cy="-1" rx="1.1" ry="1.6" fill="#fff" opacity=".75"/>
    <circle cx="22" cy="0" r="1.4" fill="#cce" opacity=".7"/>
    <circle cx="26" cy="-4" r="1.1" fill="#cce" opacity=".55"/>
    <circle cx="28" cy="3" r="1" fill="#cce" opacity=".5"/>
    <circle cx="32" cy="-1" r=".8" fill="#cce" opacity=".4"/>
  </g>
  <g transform="translate(70 78)">
    <polygon points="12,-2.5 19,-5 19,-1 14,-1" fill="#1a1a1a"/>
    <polygon points="12,2.5 19,5 19,1 14,1" fill="#1a1a1a"/>
    <ellipse cx="0" cy="0" rx="9" ry="4.5" fill="#d22"/>
    <rect x="-15" y="-3" width="8" height="2.2" rx="1" fill="#d22"/>
    <rect x="-15" y=".8" width="8" height="2.2" rx="1" fill="#d22"/>
    <circle cx="-11" cy="0" r="5.2" fill="#d22"/>
    <ellipse cx="-13" cy="0" rx="2.5" ry="3.5" fill="#9cf"/>
    <ellipse cx="-13.5" cy="-1" rx=".9" ry="1.3" fill="#fff" opacity=".75"/>
    <circle cx="17" cy="-1" r="1.1" fill="#cce" opacity=".6"/>
    <circle cx="21" cy="-3" r=".8" fill="#cce" opacity=".4"/>
    <circle cx="22" cy="2" r=".8" fill="#cce" opacity=".4"/>
  </g>
  <g transform="translate(82 18)">
    <polygon points="7,-1.5 11,-3 11,-.5 8,-.5" fill="#222" opacity=".75"/>
    <polygon points="7,1.5 11,3 11,.5 8,.5" fill="#222" opacity=".75"/>
    <ellipse cx="0" cy="0" rx="5.5" ry="3" fill="#a33"/>
    <rect x="-10" y="-2" width="6" height="1.5" rx=".7" fill="#a33"/>
    <rect x="-10" y=".5" width="6" height="1.5" rx=".7" fill="#a33"/>
    <circle cx="-7" cy="0" r="3.5" fill="#a33"/>
    <ellipse cx="-8" cy="0" rx="1.7" ry="2.3" fill="#79b" opacity=".9"/>
    <circle cx="10" cy="0" r=".8" fill="#cce" opacity=".5"/>
    <circle cx="13" cy="-2" r=".6" fill="#cce" opacity=".4"/>
  </g>
</svg>
