<svg xmlns="http://www.w3.org/2000/svg" viewBox="0 0 100 100">
  <rect width="100" height="100" fill="#0c2040"/>
  <rect width="100" height="34" fill="#1c305c" opacity=".6"/>
  <circle cx="14" cy="10" r="1" fill="#fff" opacity=".5"/>
  <circle cx="56" cy="6" r=".8" fill="#fff" opacity=".4"/>
  <circle cx="92" cy="14" r="1" fill="#fff" opacity=".5"/>
  <path d="M 4 100 L 6 70 L 14 50 L 24 36 L 36 32 L 44 38 L 46 100 Z" fill="#070714"/>
  <ellipse cx="26" cy="54" rx="12" ry="4" fill="#04040a"/>
  <ellipse cx="20" cy="64" rx="14" ry="3" fill="#04040a"/>
  <g fill="#000" opacity=".88">
    <circle cx="58" cy="42" r="3"/>
    <ellipse cx="58" cy="50" rx="3" ry="5.5"/>
    <ellipse cx="55" cy="60" rx="1.5" ry="3"/>
    <ellipse cx="61" cy="60" rx="1.5" ry="3"/>
    <circle cx="74" cy="38" r="3"/>
    <ellipse cx="74" cy="46" rx="3" ry="5.5"/>
    <ellipse cx="71" cy="56" rx="1.5" ry="3"/>
    <ellipse cx="77" cy="56" rx="1.5" ry="3"/>
    <circle cx="66" cy="54" r="3"/>
    <ellipse cx="66" cy="62" rx="3" ry="5.5"/>
    <ellipse cx="63" cy="72" rx="1.5" ry="3"/>
    <ellipse cx="69" cy="72" rx="1.5" ry="3"/>
    <circle cx="84" cy="50" r="3"/>
    <ellipse cx="84" cy="58" rx="3" ry="5.5"/>
    <ellipse cx="81" cy="68" rx="1.5" ry="3"/>
    <ellipse cx="87" cy="68" rx="1.5" ry="3"/>
    <circle cx="78" cy="66" r="3"/>
    <ellipse cx="78" cy="74" rx="3" ry="5.5"/>
    <ellipse cx="75" cy="84" rx="1.5" ry="3"/>
    <ellipse cx="81" cy="84" rx="1.5" ry="3"/>
    <circle cx="60" cy="72" r="3"/>
    <ellipse cx="60" cy="80" rx="3" ry="5.5"/>
  </g>
  <circle cx="58" cy="32" r="1" fill="#cce" opacity=".6"/>
  <circle cx="72" cy="28" r="1.2" fill="#cce" opacity=".6"/>
  <circle cx="84" cy="34" r=".8" fill="#cce" opacity=".5"/>
</svg>
