<svg xmlns="http://www.w3.org/2000/svg" viewBox="0 0 100 100">
  <rect width="100" height="100" fill="#0c1a3a"/>
  <rect width="100" height="22" fill="#1c305c" opacity=".6"/>
  <circle cx="20" cy="12" r="1.5" fill="#fff" opacity=".5"/>
  <circle cx="40" cy="6" r="1" fill="#fff" opacity=".4"/>
  <circle cx="80" cy="10" r="1.2" fill="#fff" opacity=".5"/>
  <circle cx="60" cy="16" r=".8" fill="#fff" opacity=".4"/>
  <path d="M 0 78 L 30 72 L 60 80 L 100 74 L 100 100 L 0 100 Z" fill="#2a2018"/>
  <ellipse cx="82" cy="74" rx="14" ry="5" fill="#3a2c20"/>
  <ellipse cx="78" cy="72" rx="8" ry="3" fill="#4a3a28"/>
  <rect x="22" y="60" width="22" height="14" rx="2" fill="#e8a020"/>
  <rect x="18" y="72" width="30" height="7" rx="3.5" fill="#222"/>
  <circle cx="24" cy="76" r="3" fill="#444"/>
  <circle cx="33" cy="76" r="3" fill="#444"/>
  <circle cx="42" cy="76" r="3" fill="#444"/>
  <rect x="28" y="50" width="11" height="11" fill="#e8a020"/>
  <rect x="29" y="51" width="9" height="7" fill="#7cf" opacity=".8"/>
  <path d="M 40 56 L 58 48 L 70 62" stroke="#e8a020" stroke-width="4.5" fill="none" stroke-linecap="round"/>
  <path d="M 64 58 L 78 58 L 76 70 L 66 70 Z" fill="#888"/>
  <line x1="67" y1="60" x2="67" y2="68" stroke="#444" stroke-width="1"/>
  <line x1="71" y1="60" x2="71" y2="68" stroke="#444" stroke-width="1"/>
  <line x1="75" y1="60" x2="75" y2="68" stroke="#444" stroke-width="1"/>
  <circle cx="70" cy="74" r="2.5" fill="#5a4a30" opacity=".6"/>
  <circle cx="76" cy="78" r="2" fill="#5a4a30" opacity=".5"/>
  <circle cx="64" cy="76" r="1.5" fill="#5a4a30" opacity=".5"/>
  <circle cx="80" cy="74" r="1.5" fill="#5a4a30" opacity=".4"/>
</svg>
