<svg xmlns="http://www.w3.org/2000/svg" viewBox="0 0 100 100">
  <rect width="100" height="100" fill="#070718"/>
  <circle cx="12" cy="20" r=".8" fill="#fff"/>
  <circle cx="88" cy="14" r="1" fill="#fff"/>
  <circle cx="92" cy="58" r=".8" fill="#fff"/>
  <circle cx="20" cy="82" r=".8" fill="#fff"/>
  <circle cx="6" cy="48" r=".6" fill="#fff"/>
  <circle cx="78" cy="86" r=".7" fill="#fff"/>
  <circle cx="46" cy="12" r=".7" fill="#fff"/>
  <circle cx="68" cy="62" r="26" fill="#e8eef8"/>
  <ellipse cx="60" cy="56" rx="20" ry="18" fill="#f4f6fc"/>
  <path d="M 48 60 Q 64 50 90 60" stroke="#b86038" stroke-width="1.2" fill="none"/>
  <path d="M 46 70 Q 68 70 88 80" stroke="#b86038" stroke-width="1" fill="none"/>
  <path d="M 60 46 Q 74 60 82 82" stroke="#8a4828" stroke-width=".8" fill="none"/>
  <path d="M 54 78 Q 72 84 84 70" stroke="#8a4828" stroke-width=".8" fill="none"/>
  <path d="M 8 38 L 4 36 L 4 42 Z" fill="#f96"/>
  <path d="M 6 38 L 2 37 L 2 41 Z" fill="#fc6"/>
  <ellipse cx="28" cy="40" rx="20" ry="6" fill="#bbb"/>
  <ellipse cx="28" cy="38" rx="16" ry="4" fill="#888"/>
  <ellipse cx="30" cy="35" rx="9" ry="3.5" fill="#7cf" opacity=".9"/>
  <ellipse cx="28" cy="34" rx="6" ry="2" fill="#cef" opacity=".7"/>
  <rect x="16" y="40" width="3" height="2" fill="#444"/>
  <rect x="22" y="42" width="3" height="2" fill="#444"/>
  <rect x="34" y="42" width="3" height="2" fill="#444"/>
</svg>
