<svg xmlns="http://www.w3.org/2000/svg" viewBox="0 0 100 100">
  <rect x="0" y="85" width="100" height="15" fill="#6a3"/>
  <rect x="60" y="30" width="6" height="14" fill="#5a3a1a"/>
  <circle cx="63" cy="24" r="3" fill="#ccc" opacity=".75"/>
  <circle cx="67" cy="16" r="4" fill="#ccc" opacity=".6"/>
  <circle cx="62" cy="8" r="5" fill="#ccc" opacity=".45"/>
  <polygon points="10,52 50,22 90,52" fill="#7a4a20"/>
  <path d="M 10 52 L 90 52 L 86 56 L 14 56 Z" fill="#5a3a1a"/>
  <rect x="20" y="50" width="60" height="40" fill="#9a6a3a"/>
  <line x1="20" y1="60" x2="80" y2="60" stroke="#5a3a1a" stroke-width="1.5"/>
  <line x1="20" y1="70" x2="80" y2="70" stroke="#5a3a1a" stroke-width="1.5"/>
  <line x1="20" y1="80" x2="80" y2="80" stroke="#5a3a1a" stroke-width="1.5"/>
  <rect x="28" y="58" width="14" height="14" fill="#222"/>
  <line x1="28" y1="66" x2="42" y2="58" stroke="#aaa" stroke-width="1"/>
  <line x1="28" y1="58" x2="42" y2="72" stroke="#aaa" stroke-width="1"/>
  <rect x="55" y="65" width="14" height="25" fill="#4a2a10"/>
  <circle cx="66" cy="78" r="1.5" fill="#fc0"/>
  <ellipse cx="22" cy="82" rx="6" ry="3" fill="#5a8030" opacity=".85"/>
  <ellipse cx="78" cy="80" rx="5" ry="3" fill="#5a8030" opacity=".85"/>
  <ellipse cx="46" cy="88" rx="4" ry="2" fill="#5a8030" opacity=".85"/>
</svg>
