<svg xmlns="http://www.w3.org/2000/svg" viewBox="0 0 100 100">
  <path d="M 30 22 Q 26 12 34 8" fill="none" stroke="#ccc" stroke-width="2.5" stroke-linecap="round" opacity=".85"/>
  <path d="M 50 18 Q 46 6 54 4" fill="none" stroke="#ccc" stroke-width="2.5" stroke-linecap="round" opacity=".85"/>
  <path d="M 70 22 Q 66 12 74 8" fill="none" stroke="#ccc" stroke-width="2.5" stroke-linecap="round" opacity=".85"/>
  <path d="M 16 38 Q 18 72 28 80 L 72 80 Q 82 72 84 38 Z" fill="#222"/>
  <path d="M 14 42 Q 6 47 14 54" fill="none" stroke="#222" stroke-width="4" stroke-linecap="round"/>
  <path d="M 86 42 Q 94 47 86 54" fill="none" stroke="#222" stroke-width="4" stroke-linecap="round"/>
  <ellipse cx="50" cy="36" rx="34" ry="6" fill="#444"/>
  <ellipse cx="50" cy="35" rx="30" ry="4" fill="#3a78b8"/>
  <ellipse cx="50" cy="34" rx="10" ry="3" fill="#8a8a8a"/>
  <ellipse cx="47" cy="33.5" rx="4" ry="1.2" fill="#a8a8a8"/>
  <path d="M 23 48 Q 22 65 28 76" fill="none" stroke="#555" stroke-width="2"/>
  <path d="M 30 80 Q 35 92 40 80 Q 45 94 50 80 Q 55 94 60 80 Q 65 92 70 80 L 70 94 L 30 94 Z" fill="#f80"/>
  <path d="M 36 82 Q 40 90 44 82 Q 50 92 56 82 Q 60 90 64 82 L 64 94 L 36 94 Z" fill="#fc0"/>
  <path d="M 44 86 Q 47 92 50 86 Q 53 92 56 86 L 56 94 L 44 94 Z" fill="#fe6"/>
</svg>
