<svg xmlns="http://www.w3.org/2000/svg" viewBox="0 0 100 100">
  <ellipse cx="50" cy="60" rx="22" ry="26" fill="#9bc468"/>
  <path d="M 30 52 Q 24 70 28 92 L 34 92 Q 34 70 36 56 Z" fill="#e8e8e8"/>
  <path d="M 70 52 Q 76 70 72 92 L 66 92 Q 66 70 64 56 Z" fill="#e8e8e8"/>
  <ellipse cx="50" cy="38" rx="42" ry="6" fill="#111"/>
  <path d="M 28 38 L 54 6 L 60 38 Z" fill="#222"/>
  <rect x="32" y="34" width="26" height="4" fill="#7a2070"/>
  <ellipse cx="42" cy="58" rx="3" ry="4" fill="#000"/>
  <ellipse cx="58" cy="58" rx="3" ry="4" fill="#000"/>
  <path d="M 37 51 L 47 53" stroke="#000" stroke-width="2" stroke-linecap="round"/>
  <path d="M 53 53 L 63 51" stroke="#000" stroke-width="2" stroke-linecap="round"/>
  <path d="M 50 60 Q 57 68 53 76 Q 49 78 47 74 Z" fill="#7da848"/>
  <circle cx="54" cy="71" r="1.5" fill="#5a7a30"/>
  <path d="M 42 82 Q 50 78 58 82" fill="none" stroke="#3a1a3a" stroke-width="2" stroke-linecap="round"/>
  <rect x="46" y="80" width="2" height="3" fill="#fff"/>
</svg>
