<svg xmlns="http://www.w3.org/2000/svg" viewBox="0 0 126 82">
  <g stroke="#be185d" stroke-width="3.3" stroke-linejoin="round" stroke-linecap="round">
    <path d="M30 40 Q8 24 6 14 Q16 30 26 36 Q14 50 8 64 Q18 52 30 48 Z" fill="#fbcfe8"/>
    <path d="M52 58 q-4 14 -12 16 q8 4 14 -2 Z" fill="#f9a8d4"/>
    <path d="M84 58 q-3 14 -11 16 q8 4 14 -2 Z" fill="#f9a8d4"/>
    <path d="M28 40 Q40 20 78 22 Q108 24 112 40 Q108 56 78 58 Q40 60 28 40 Z" fill="#fbcfe8"/>
    <g fill="#f472b6">
      <path d="M96 24 q10 -14 20 -10 q-6 8 -14 14 Z"/>
      <path d="M100 30 q14 -8 22 0 q-10 4 -20 6 Z"/>
      <path d="M98 38 q14 0 22 12 q-12 0 -22 -4 Z"/>
    </g>
  </g>
  <circle cx="98" cy="36" r="4.6" fill="#fff" stroke="#be185d" stroke-width="2"/>
  <circle cx="99" cy="36.6" r="2.3" fill="#1f2937"/>
  <circle cx="84" cy="36" r="4.6" fill="#fff" stroke="#be185d" stroke-width="2"/>
  <circle cx="85" cy="36.6" r="2.3" fill="#1f2937"/>
  <path d="M86 46 q9 7 18 1" fill="none" stroke="#be185d" stroke-width="2.8" stroke-linecap="round"/>
  <circle cx="80" cy="44" r="4" fill="#fb7185" opacity="0.7"/>
  <circle cx="104" cy="44" r="4" fill="#fb7185" opacity="0.7"/>
</svg>
