<svg xmlns="http://www.w3.org/2000/svg" viewBox="0 0 130 86">
  <g stroke="#1e3a5f" stroke-width="3.5" stroke-linejoin="round" stroke-linecap="round">
    <path d="M34 44 Q10 30 4 14 Q22 28 34 36 Q22 48 4 60 Q14 50 34 50 Z" fill="#5b8fb9"/>
    <path d="M58 24 Q66 4 84 18 Q74 24 66 30 Z" fill="#5b8fb9"/>
    <path d="M72 54 Q78 72 94 62 Q84 56 78 50 Z" fill="#5b8fb9"/>
    <path d="M30 44 Q42 18 86 22 Q108 24 122 34 Q126 38 120 42 Q112 44 104 44 Q112 48 116 56 Q104 64 86 64 Q42 66 30 44 Z" fill="#7eb3d8"/>
    <path d="M52 56 Q84 70 112 54 Q88 62 58 60 Z" fill="#eaf2f8"/>
  </g>
  <path d="M118 40 q-7 3 -13 0" fill="none" stroke="#1e3a5f" stroke-width="3" stroke-linecap="round"/>
  <circle cx="100" cy="36" r="7.5" fill="#fff" stroke="#1e3a5f" stroke-width="2.5"/>
  <circle cx="102" cy="37" r="3.7" fill="#1f2937"/>
  <circle cx="92" cy="22" r="3.5" fill="#1e3a5f"/>
</svg>
