<svg xmlns="http://www.w3.org/2000/svg" viewBox="0 0 92 122">
  <g fill="none" stroke="#f472b6" stroke-width="6" stroke-linecap="round">
    <path d="M26 60 q-6 22 4 40 q-8 10 -2 18"/>
    <path d="M40 64 q-4 26 2 44 q-6 8 0 12"/>
    <path d="M52 64 q4 26 -2 44 q6 8 0 12"/>
    <path d="M66 60 q6 22 -4 40 q8 10 2 18"/>
  </g>
  <g fill="#f9a8d4" stroke="#db2777" stroke-width="2.6" stroke-linejoin="round">
    <path d="M38 58 q-6 16 -2 30 q8 -4 10 -16 Z"/>
    <path d="M54 58 q6 16 2 30 q-8 -4 -10 -16 Z"/>
  </g>
  <path d="M8 58 Q8 14 46 14 Q84 14 84 58 Q66 70 46 70 Q26 70 8 58 Z" fill="#f9a8d4" stroke="#db2777" stroke-width="3.5" stroke-linejoin="round"/>
  <path d="M20 30 Q30 22 44 24" stroke="#fce7f3" stroke-width="5" fill="none" stroke-linecap="round" opacity="0.8"/>
  <circle cx="36" cy="44" r="6" fill="#fff" stroke="#db2777" stroke-width="2.3"/>
  <circle cx="37.5" cy="45" r="3" fill="#1f2937"/>
  <circle cx="56" cy="44" r="6" fill="#fff" stroke="#db2777" stroke-width="2.3"/>
  <circle cx="57.5" cy="45" r="3" fill="#1f2937"/>
  <path d="M40 54 q6 6 12 0" fill="none" stroke="#db2777" stroke-width="2.6" stroke-linecap="round"/>
</svg>
