<svg xmlns="http://www.w3.org/2000/svg" viewBox="0 0 96 120">
  <g fill="none" stroke="#38bdf8" stroke-width="5.5" stroke-linecap="round">
    <path d="M28 58 q-8 24 2 38 q-6 12 2 20"/>
    <path d="M42 62 q-3 28 3 44"/>
    <path d="M56 62 q3 28 -3 44"/>
    <path d="M70 58 q8 24 -2 38 q6 12 -2 20"/>
  </g>
  <g fill="#7dd3fc" stroke="#0284c7" stroke-width="2.6" stroke-linejoin="round">
    <path d="M40 56 q-7 18 -3 30 q9 -5 11 -18 Z"/>
    <path d="M56 56 q7 18 3 30 q-9 -5 -11 -18 Z"/>
  </g>
  <path d="M12 52 Q14 12 48 12 Q82 12 84 52 Q80 60 72 54 Q66 66 58 56 Q52 66 48 58 Q44 66 38 56 Q30 66 24 54 Q16 60 12 52 Z" fill="#7dd3fc" stroke="#0284c7" stroke-width="3.5" stroke-linejoin="round"/>
  <path d="M24 28 Q34 20 46 22" stroke="#e0f2fe" stroke-width="5" fill="none" stroke-linecap="round" opacity="0.85"/>
  <circle cx="40" cy="38" r="6" fill="#fff" stroke="#0284c7" stroke-width="2.3"/>
  <circle cx="41.5" cy="39" r="3" fill="#1f2937"/>
  <circle cx="58" cy="38" r="6" fill="#fff" stroke="#0284c7" stroke-width="2.3"/>
  <circle cx="59.5" cy="39" r="3" fill="#1f2937"/>
  <path d="M44 48 q5 5 10 0" fill="none" stroke="#0284c7" stroke-width="2.6" stroke-linecap="round"/>
</svg>
