<svg xmlns="http://www.w3.org/2000/svg" viewBox="0 0 120 80">
  <path d="M96 36 q15 5 15 17 q-13 -1 -20 -7 Z" fill="#facc15" stroke="#a16207" stroke-width="3" stroke-linejoin="round"/>
  <g fill="#fde047" stroke="#a16207" stroke-width="3.5" stroke-linejoin="round">
    <path d="M60 5 l9 15 -17 1 Z"/>
    <path d="M95 14 l6 16 -16 -5 Z"/>
    <path d="M112 43 l-16 1 11 13 Z"/>
    <path d="M90 71 l-3 -16 14 6 Z"/>
    <path d="M30 72 l11 -13 6 15 Z"/>
    <path d="M9 45 l16 -4 -9 15 Z"/>
    <path d="M21 15 l15 5 -5 15 Z"/>
    <circle cx="62" cy="42" r="34"/>
  </g>
  <circle cx="77" cy="34" r="9" fill="#fff" stroke="#a16207" stroke-width="2.5"/>
  <circle cx="80" cy="35" r="4.3" fill="#1f2937"/>
  <path d="M86 53 q-12 9 -23 0" fill="none" stroke="#a16207" stroke-width="3.5" stroke-linecap="round"/>
  <circle cx="47" cy="50" r="5.5" fill="#fca5a5" opacity="0.7"/>
</svg>
