<svg xmlns="http://www.w3.org/2000/svg" viewBox="0 0 110 104">
  <path d="M55 6 Q63 34 70 40 Q92 40 104 50 Q86 62 82 70 Q90 96 84 100 Q64 86 55 86 Q46 86 26 100 Q20 96 28 70 Q24 62 6 50 Q18 40 40 40 Q47 34 55 6 Z" fill="#fb923c" stroke="#c2410c" stroke-width="3.6" stroke-linejoin="round"/>
  <g fill="#fdba74">
    <circle cx="55" cy="44" r="6"/><circle cx="40" cy="56" r="4.5"/>
    <circle cx="70" cy="56" r="4.5"/><circle cx="48" cy="70" r="4"/><circle cx="64" cy="70" r="4"/>
  </g>
  <circle cx="48" cy="50" r="6" fill="#fff" stroke="#c2410c" stroke-width="2.4"/>
  <circle cx="49.5" cy="51" r="3" fill="#1f2937"/>
  <circle cx="64" cy="50" r="6" fill="#fff" stroke="#c2410c" stroke-width="2.4"/>
  <circle cx="65.5" cy="51" r="3" fill="#1f2937"/>
  <path d="M50 62 q6 6 12 0" fill="none" stroke="#c2410c" stroke-width="2.8" stroke-linecap="round"/>
</svg>
